# xmcd CD database file
#
# Track frame offsets:
#	150
#	17401
#	38071
#	57897
#	75435
#	91581
#	110374
#	129082
#	150794
#	170864
#	194244
#
# Disc length: 2974 seconds
#
# Revision: 2
# Processed by: cddbd v1.5.2PL0 Copyright (c) Steve Scherf et al.
# Submitted via: CDex 1.70beta2
#
DISCID=760b9c0b
DTITLE=GARI - Colorful Talk
DYEAR=2010
DGENRE=Mixture
TTITLE0=OVER THE SUNRISE
TTITLE1=Nu=DANCE
TTITLE2=DiSCO PANiC '87
TTITLE3=STARCADE
TTITLE4=Good-bye PUNXX
TTITLE5=SWEET, SWEET
TTITLE6=Hey Now!
TTITLE7=NEWWAVE x NEWDAYS
TTITLE8=Battle?(Feat. URALi AKA Norisiam-X)
TTITLE9=RIFF RAIN
TTITLE10=La La La..
EXTD=YEAR: 2010
EXTT0=
EXTT1=
EXTT2=
EXTT3=
EXTT4=
EXTT5=
EXTT6=
EXTT7=
EXTT8=
EXTT9=
EXTT10=
PLAYORDER=
